<?xml version="1.0" encoding="UTF-8" standalone="no"?>
<svg
   xmlns:dc="http://purl.org/dc/elements/1.1/"
   xmlns:cc="http://creativecommons.org/ns#"
   xmlns:rdf="http://www.w3.org/1999/02/22-rdf-syntax-ns#"
   xmlns:svg="http://www.w3.org/2000/svg"
   xmlns="http://www.w3.org/2000/svg"
   xmlns:sodipodi="http://sodipodi.sourceforge.net/DTD/sodipodi-0.dtd"
   xmlns:inkscape="http://www.inkscape.org/namespaces/inkscape"
   inkscape:export-ydpi="300"
   inkscape:export-xdpi="300"
   inkscape:export-filename="/home/srevinsaju/repo/pyappimage/assets/pyappimage.png"
   inkscape:version="1.0 (4035a4fb49, 2020-05-01)"
   sodipodi:docname="pyappimage.svg"
   id="svg12"
   version="1"
   height="64"
   width="64">
  <metadata
     id="metadata18">
    <rdf:RDF>
      <cc:Work
         rdf:about="">
        <dc:format>image/svg+xml</dc:format>
        <dc:type
           rdf:resource="http://purl.org/dc/dcmitype/StillImage" />
        <dc:title></dc:title>
      </cc:Work>
    </rdf:RDF>
  </metadata>
  <defs
     id="defs16" />
  <sodipodi:namedview
     inkscape:current-layer="svg12"
     inkscape:window-maximized="1"
     inkscape:window-y="0"
     inkscape:window-x="0"
     inkscape:cy="-37.610327"
     inkscape:cx="18.376503"
     inkscape:zoom="1.6914063"
     showgrid="false"
     id="namedview14"
     inkscape:window-height="1054"
     inkscape:window-width="1920"
     inkscape:pageshadow="2"
     inkscape:pageopacity="0"
     guidetolerance="10"
     gridtolerance="10"
     objecttolerance="10"
     borderopacity="1"
     bordercolor="#666666"
     pagecolor="#ffffff" />
  <path
     id="path2"
     d="M 5.1333837,23.486346 4.9185468,23.85744 c -0.3154354,0.558592 -0.1778434,1.331661 0.3085955,1.749975 l 4.4373354,3.893943 c 0.045175,-0.613351 0.1088864,-1.220382 0.1992151,-1.824193 L 5.2271603,23.607224 c -0.039199,-0.036 -0.059199,-0.084 -0.093799,-0.121998 z m 53.7332183,0 c -0.03458,0.038 -0.05458,0.0874 -0.09374,0.121098 l -4.636732,4.070341 c 0.09026,0.603811 0.154017,1.210842 0.199217,1.824193 l 4.437535,-3.894543 c 0.486373,-0.418314 0.624011,-1.191383 0.308596,-1.749975 L 58.867482,23.485466 Z M 9.645318,32.002222 c -0.01666,0.332255 -0.042967,0.66169 -0.042967,0.999985 0,0.507433 0.02607,1.005186 0.062499,1.499979 L 9.8640648,34.326408 C 9.7492665,33.560419 9.6844674,32.786431 9.645268,32.002442 Z m 44.709349,0 c -0.03932,0.783869 -0.104138,1.558017 -0.218756,2.324166 l 0.199217,0.175778 c 0.03644,-0.494793 0.0625,-0.992546 0.0625,-1.499979 0,-0.338295 -0.0263,-0.66773 -0.04296,-0.999985 z M 5.1333837,40.518098 C 4.7387894,40.952092 4.628591,41.632082 4.9185868,42.146074 l 5.6015182,9.710859 c 0.324776,0.550792 1.055645,0.821708 1.660136,0.613271 l 5.820115,-1.969971 c 1.748795,1.399919 3.742746,2.541763 5.863115,3.370951 l 1.179663,5.992113 c 0.119798,0.62739 0.71679,1.128003 1.35546,1.136703 h 11.203037 c 0.638651,-0.008 1.235702,-0.509313 1.355461,-1.136703 l 1.179662,-5.992113 c 2.11797,-0.829988 4.111941,-1.971972 5.859915,-3.371951 l 5.820315,1.968731 c 0.604472,0.208437 1.335361,-0.0624 1.660136,-0.613271 l 5.601519,-9.710859 c 0.290016,-0.513592 0.179797,-1.195122 -0.214837,-1.628876 l -5.386722,9.339664 c -0.324775,0.550872 -1.055664,0.821708 -1.660136,0.613271 l -5.821915,-1.969971 c -1.748794,1.39992 -3.742745,2.537763 -5.863115,3.367151 l -1.179662,5.995913 c -0.117999,0.625991 -0.71599,1.127983 -1.353981,1.135983 H 26.395234 c -0.63865,-0.0086 -1.235662,-0.509312 -1.35546,-1.136703 l -1.177983,-5.995913 c -2.121969,-0.829988 -4.11514,-1.967971 -5.863915,-3.367951 l -5.820315,1.967971 c -0.604391,0.209997 -1.33518,-0.062 -1.659976,-0.611991 L 5.1308637,40.512518 Z"
     style="opacity:0.2" />
  <path
     id="path6"
     d="m 29.342517,19.000411 c -0.791418,0 -1.342266,0.637133 -1.342266,1.428551 v 16.571187 h -5.999913 l 9.999855,11.999826 9.999854,-11.999826 H 36.000135 V 20.428962 c 0,-0.791418 -0.550848,-1.428551 -1.342267,-1.428551 z"
     style="opacity:0.2" />
  <path
     d="M 26.269531 4 L 26.267578 4.0019531 C 25.673967 4.0665521 25.151467 4.5515005 25.042969 5.1386719 L 23.861328 11.132812 C 21.740759 11.96212 19.748775 13.101933 18 14.501953 L 12.181641 12.533203 C 11.57715 12.324766 10.844307 12.59364 10.519531 13.144531 L 4.9199219 22.857422 C 4.6044865 23.416013 4.7401296 24.189108 5.2265625 24.607422 L 9.8632812 28.675781 C 9.7000836 29.766705 9.5996094 30.86557 9.5996094 32.001953 C 9.5996094 33.138377 9.6999831 34.235188 9.8632812 35.326172 L 5.2265625 39.394531 C 4.7401896 39.812845 4.6044865 40.58594 4.9199219 41.144531 L 10.519531 50.857422 C 10.844307 51.408214 11.57715 51.677187 12.181641 51.46875 L 18 49.5 C 19.748795 50.899919 21.742712 52.039753 23.863281 52.869141 L 25.042969 58.863281 C 25.162767 59.490672 25.761741 59.9913 26.400391 60 L 37.599609 60 C 38.23826 59.992 38.835339 59.490672 38.955078 58.863281 L 40.136719 52.869141 C 42.257288 52.039833 44.251225 50.899999 46 49.5 L 51.818359 51.46875 C 52.422831 51.677187 53.155694 51.408293 53.480469 50.857422 L 59.080078 41.144531 C 59.395493 40.58594 59.25987 39.812845 58.773438 39.394531 L 54.136719 35.326172 C 54.299916 34.235248 54.398437 33.138537 54.398438 32.001953 C 54.398438 30.86553 54.299795 29.766765 54.136719 28.675781 L 58.773438 24.607422 C 59.259811 24.189108 59.395493 23.416013 59.080078 22.857422 L 56.097656 17.685547 A 11.215117 11.215117 0 0 1 47.25 22.011719 A 11.215117 11.215117 0 0 1 36.035156 10.794922 A 11.215117 11.215117 0 0 1 38.199219 4.1738281 C 38.012023 4.0755346 37.811894 4.0028852 37.599609 4 L 26.400391 4 C 26.356591 3.99898 26.313129 3.99898 26.269531 4 z "
     style="fill:#1fa5cd"
     id="path4-2" />
  <path
     id="path8"
     d="m 29.342517,18.00044 c -0.791418,0 -1.342266,0.637134 -1.342266,1.428551 v 16.571187 h -5.999913 l 9.999855,11.999826 9.999854,-11.999826 H 36.000135 V 19.428991 c 0,-0.791417 -0.550848,-1.428551 -1.342267,-1.428551 z"
     style="fill:#ffffff" />
  <path
     sodipodi:nodetypes="cccccccccccccccccccccccsccccccscccccccccccccc"
     id="path10"
     d="m 26.269531,4 -0.002,0.00195 C 25.67392,4.066549 25.15142,4.5514974 25.042922,5.1386688 L 23.861328,11.132812 C 21.740759,11.96212 19.748775,13.101933 18,14.501953 l -5.818359,-1.96875 c -0.604491,-0.208437 -1.337334,0.06044 -1.66211,0.611328 l -5.5996091,9.712891 c -0.2017901,0.357341 -0.2015811,0.79583 -0.060547,1.179687 0.022602,-0.05945 0.029066,-0.12394 0.060547,-0.179687 l 5.5996091,-9.712891 c 0.324776,-0.550891 1.057619,-0.819765 1.66211,-0.611328 L 18,15.501953 c 1.748775,-1.40002 3.740759,-2.539833 5.861328,-3.369141 L 25.042969,6.1386719 C 25.151467,5.5515005 25.673967,5.0665521 26.267578,5.0019531 L 26.269531,5 c 0.0436,-0.00102 0.08706,-0.00102 0.13086,0 L 37.599609,4 c 0.59961,0.1738281 0.168028,0.7758091 0,0 H 26.400391 c -0.0438,-0.00102 -0.08726,-0.00102 -0.13086,0 z M 9.7558594,29.582031 c -0.090841,0.795095 -0.15625,1.59632 -0.15625,2.419922 0,0.168686 0.017228,0.330968 0.021484,0.498047 0.024493,-0.958027 0.1032809,-1.895672 0.2421874,-2.824219 z m 44.4882816,0 -0.107422,0.09375 c 0.138806,0.928616 0.217677,1.866168 0.242187,2.824219 0.0043,-0.167073 0.01953,-0.329356 0.01953,-0.498047 0,-0.823631 -0.06347,-1.624831 -0.154297,-2.419922 z M 9.7558594,35.419922 5.2265625,39.394531 C 4.7887294,39.771098 4.6555139,40.42857 4.859375,40.964844 4.938805,40.748661 5.0513316,40.545242 5.2265625,40.394531 l 4.6367187,-4.068359 c -0.044946,-0.300285 -0.072919,-0.604297 -0.1074218,-0.90625 z m 44.4882816,0 c -0.0345,0.301937 -0.0625,0.605981 -0.107422,0.90625 l 4.636719,4.068359 c 0.175252,0.150711 0.287761,0.35413 0.367187,0.570313 0.203859,-0.536274 0.0707,-1.193746 -0.367187,-1.570313 z"
     style="opacity:0.2;fill:#ffffff" />
  <g
     transform="matrix(0.66653516,0,0,0.66653516,-11.701591,-24.576691)"
     id="g867">
    <path
       style="fill:#4795d1"
       d="m 87.352646,40.032324 c -3.03,0 -5.908,2.001 -5.719,4.156 v 2.844 h -2.094 c -2.164,0 -3.906,1.939 -3.906,4.969 v 1.562 c 0,3.03 1.742,5.469 3.906,5.469 h 2.094 v -3.125 c 0,-1.731 1.644,-2.875 3.375,-2.875 h 6.25 c 0,0 3.375,0 3.375,-3.375 v -5.469 c 0,-2.164 -2.689,-4.156 -5.719,-4.156 z m -2.219,3 c 0.828,0 1.5,0.672 1.5,1.5 0,0.828 -0.672,1.5 -1.5,1.5 -0.828,0 -1.5,-0.672 -1.5,-1.5 0,-0.828 0.672,-1.5 1.5,-1.5 z"
       id="path10-3" />
    <path
       style="fill:#ffa751"
       d="m 94.633646,47.032324 v 2.625 0.5 c 0,0.11462 -0.0368,0.25025 -0.0996,0.39649 -1.4e-4,6.1e-4 1.3e-4,10e-4 0,0.002 -0.19251,0.87462 -0.65906,1.4285 -1.18359,1.79296 -0.0715,0.0502 -0.14177,0.0957 -0.21485,0.13868 -0.12632,0.0736 -0.24667,0.14084 -0.37305,0.19531 -0.0752,0.0329 -0.14514,0.059 -0.21875,0.0859 -0.12242,0.0441 -0.23606,0.0874 -0.3496,0.11719 -0.0759,0.0204 -0.139,0.0318 -0.20899,0.0469 -0.0974,0.0205 -0.16606,0.0407 -0.24805,0.0527 -0.28612,0.0452 -0.47851,0.0468 -0.47851,0.0468 h -6.25 c -1.64259,0 -3.1902,1.03679 -3.3457,2.6211 -0.0167,0.23701 -0.0293,0.47977 -0.0293,0.7539 v 2.625 2.84375 c 0,2.164 2.68875,4.15625 5.71875,4.15625 h 1.5625 c 3.03,0 5.90815,-2.00085 5.71875,-4.15625 v -2.84375 h 2.09375 c 2.164,0 3.906254,-1.93875 3.906254,-4.96875 v -1.5625 c 0,-3.029 -1.742254,-5.46875 -3.906254,-5.46875 z m -3.5,13 c 0.82843,0 1.5,0.67157 1.5,1.5 0,0.82843 -0.67157,1.5 -1.5,1.5 -0.828,0 -1.5,-0.672 -1.5,-1.5 0,-0.828 0.672,-1.5 1.5,-1.5 z"
       id="path12-6" />
  </g>
</svg>
